<svg xmlns="http://www.w3.org/2000/svg" width="1024" height="1024" viewBox="0 0 1024 1024" role="img" aria-label="Two-player grid game with two goals">
  <rect width="1024" height="1024" fill="#ffffff"/>
  <rect x="32" y="32" width="960" height="960" fill="#ffffff" stroke="#3f3f3f" stroke-width="6"/>

  <g stroke="#cfcfcf" stroke-width="4">
    <line x1="96" y1="32" x2="96" y2="992"/>
    <line x1="160" y1="32" x2="160" y2="992"/>
    <line x1="224" y1="32" x2="224" y2="992"/>
    <line x1="288" y1="32" x2="288" y2="992"/>
    <line x1="352" y1="32" x2="352" y2="992"/>
    <line x1="416" y1="32" x2="416" y2="992"/>
    <line x1="480" y1="32" x2="480" y2="992"/>
    <line x1="544" y1="32" x2="544" y2="992"/>
    <line x1="608" y1="32" x2="608" y2="992"/>
    <line x1="672" y1="32" x2="672" y2="992"/>
    <line x1="736" y1="32" x2="736" y2="992"/>
    <line x1="800" y1="32" x2="800" y2="992"/>
    <line x1="864" y1="32" x2="864" y2="992"/>
    <line x1="928" y1="32" x2="928" y2="992"/>

    <line x1="32" y1="96" x2="992" y2="96"/>
    <line x1="32" y1="160" x2="992" y2="160"/>
    <line x1="32" y1="224" x2="992" y2="224"/>
    <line x1="32" y1="288" x2="992" y2="288"/>
    <line x1="32" y1="352" x2="992" y2="352"/>
    <line x1="32" y1="416" x2="992" y2="416"/>
    <line x1="32" y1="480" x2="992" y2="480"/>
    <line x1="32" y1="544" x2="992" y2="544"/>
    <line x1="32" y1="608" x2="992" y2="608"/>
    <line x1="32" y1="672" x2="992" y2="672"/>
    <line x1="32" y1="736" x2="992" y2="736"/>
    <line x1="32" y1="800" x2="992" y2="800"/>
    <line x1="32" y1="864" x2="992" y2="864"/>
    <line x1="32" y1="928" x2="992" y2="928"/>
  </g>

  <rect x="544" y="96" width="64" height="64" fill="#0875f5"/>
  <rect x="544" y="928" width="64" height="64" fill="#0875f5"/>

  <circle cx="192" cy="512" r="23" fill="#ff0808"/>
  <circle cx="960" cy="512" r="23" fill="#8426ee"/>
</svg>
